<svg width="141" height="50" viewBox="0 0 141 50" fill="none" xmlns="http://www.w3.org/2000/svg">
<path d="M80.3008 14.7227C80.3008 15.3867 79.8776 16.1875 79.0312 17.125C78.1849 18.0625 77.1367 18.9544 75.8867 19.8008C74.6497 20.6471 73.4193 21.3177 72.1953 21.8125C72.4688 21.7214 72.7487 21.6758 73.0352 21.6758C73.9987 21.6758 74.6367 21.8516 74.9492 22.2031C75.0273 22.2812 75.0664 22.3724 75.0664 22.4766C75.0664 22.5807 74.8906 22.8346 74.5391 23.2383C70.8802 27.4701 67.5208 31.6693 64.4609 35.8359C65.7109 34.8594 66.8177 33.9284 67.7812 33.043C68.3151 32.5612 68.9661 32.3203 69.7344 32.3203C70.2943 32.3203 70.6393 32.3919 70.7695 32.5352C70.8997 32.6784 70.9648 32.8021 70.9648 32.9062C70.9648 32.9974 70.8802 33.1081 70.7109 33.2383C68.5365 35.1393 64.9883 37.9128 60.0664 41.5586C59.2201 42.5091 57.0846 44.7747 53.6602 48.3555C53.0482 48.9805 52.3711 49.293 51.6289 49.293C50.1836 49.293 49.4609 48.8893 49.4609 48.082C49.4609 47.7305 49.7409 47.1706 50.3008 46.4023C51.1081 45.2174 53.0807 43.4271 56.2188 41.0312C56.9089 40.263 58.1003 38.9609 59.793 37.125C62.9961 33.6354 64.9297 31.3958 65.5938 30.4062C63.8229 32.0859 62.4818 33.2708 61.5703 33.9609C60.6589 34.651 59.8125 35.25 59.0312 35.7578C58.263 36.2656 57.5534 36.6758 56.9023 36.9883C53.7513 38.4987 51.5052 38.5052 50.1641 37.0078C49.487 36.2656 49.1484 35.1784 49.1484 33.7461C49.1484 32.3008 49.5456 30.7122 50.3398 28.9805C51.1341 27.2487 52.1953 25.543 53.5234 23.8633C54.8516 22.1706 56.4271 20.5234 58.25 18.9219C60.0729 17.3203 61.9674 15.9141 63.9336 14.7031C65.8997 13.4922 67.9701 12.5221 70.1445 11.793C72.319 11.0508 74.3698 10.6797 76.2969 10.6797C76.9609 10.6797 77.5859 10.7904 78.1719 11.0117C78.7578 11.2331 79.1745 11.4674 79.4219 11.7148C80.0078 12.3008 80.3008 13.3034 80.3008 14.7227ZM69.0117 18.8047L68.9141 19.1953C68.9141 19.4167 69.0638 19.5273 69.3633 19.5273C70.1576 19.5273 71.2448 19.1432 72.625 18.375C74.0052 17.6068 75.1185 16.819 75.9648 16.0117C76.8112 15.2044 77.2344 14.5339 77.2344 14C77.2344 13.5443 76.8307 13.3164 76.0234 13.3164C74.5911 13.3164 72.9766 13.668 71.1797 14.3711C69.3958 15.0742 67.651 15.9857 65.9453 17.1055C64.2396 18.2253 62.5599 19.5143 60.9062 20.9727C59.2526 22.418 57.8073 23.8698 56.5703 25.3281C55.3464 26.7734 54.3568 28.1927 53.6016 29.5859C52.8464 30.9792 52.4688 32.1706 52.4688 33.1602C52.4688 33.5508 52.5794 33.8958 52.8008 34.1953C53.0352 34.4948 53.3737 34.6445 53.8164 34.6445C55.1836 34.6445 57.3841 33.5964 60.418 31.5C63.4648 29.4036 66.9609 26.5456 70.9062 22.9258C70.9583 22.8737 71.0495 22.776 71.1797 22.6328C71.4661 22.2812 71.7591 22.0273 72.0586 21.8711C70.9909 22.3008 70.1185 22.5156 69.4414 22.5156C68.7643 22.5156 68.2044 22.3659 67.7617 22.0664C67.319 21.7669 67.0977 21.3633 67.0977 20.8555C67.0977 20.3346 67.3255 19.8464 67.7812 19.3906C68.237 18.9349 68.556 18.707 68.7383 18.707C68.9206 18.707 69.0117 18.7396 69.0117 18.8047ZM87.6258 24.1562C88.6154 24.1562 89.1102 24.4948 89.1102 25.1719C89.1102 25.5365 89.0255 25.8034 88.8563 25.9727C88.687 26.1419 88.3224 26.7083 87.7625 27.6719C87.2156 28.6224 86.6036 29.8464 85.9266 31.3438C85.2625 32.8281 84.8328 34.0977 84.6375 35.1523C84.5984 35.2826 84.5789 35.4648 84.5789 35.6992C84.5789 36.4154 84.7742 36.7734 85.1648 36.7734C85.5555 36.7734 86.0177 36.5911 86.5516 36.2266C87.0854 35.849 87.5607 35.4518 87.9773 35.0352C88.394 34.6055 88.7977 34.1693 89.1883 33.7266C89.5919 33.2839 89.8328 33.0299 89.9109 32.9648C89.9891 32.8997 90.1063 32.8672 90.2625 32.8672C90.5099 32.8672 90.6596 33.056 90.7117 33.4336C90.7638 33.8112 90.7898 34.2018 90.7898 34.6055C90.7898 35.0091 90.7508 35.2891 90.6727 35.4453C90.2951 36.1875 89.4617 37.0794 88.1727 38.1211C86.8966 39.1628 85.7313 39.6836 84.6766 39.6836C83.6349 39.6836 82.8667 39.3646 82.3719 38.7266C81.8771 38.0885 81.6297 37.3854 81.6297 36.6172C81.6297 35.8359 81.7599 35.1523 82.0203 34.5664C80.9396 35.9727 79.6961 37.1641 78.2898 38.1406C76.8966 39.1172 75.7573 39.6055 74.8719 39.6055C73.9865 39.6055 73.2638 39.3385 72.7039 38.8047C71.9878 38.1406 71.6297 37.2227 71.6297 36.0508C71.6297 34.8659 71.8901 33.681 72.4109 32.4961C72.9448 31.2982 73.6414 30.2109 74.5008 29.2344C75.3602 28.2448 76.3042 27.3464 77.3328 26.5391C79.4943 24.8464 81.4865 24 83.3094 24C84.0125 24 84.5854 24.1172 85.0281 24.3516C85.4708 24.5859 85.7508 24.8789 85.868 25.2305C86.1805 24.7617 86.4409 24.4688 86.6492 24.3516C86.8706 24.2214 87.1961 24.1562 87.6258 24.1562ZM85.0281 26.3242C82.8016 26.3242 80.4969 27.5612 78.1141 30.0352C77.2677 30.9206 76.4865 31.9818 75.7703 33.2188C75.0672 34.4557 74.7156 35.3021 74.7156 35.7578C74.7156 36.2135 74.8458 36.4414 75.1063 36.4414C75.4708 36.4414 76.4865 35.7253 78.1531 34.293C79.8198 32.8477 80.9266 31.7865 81.4734 31.1094C82.0724 30.3542 83.2573 28.7591 85.0281 26.3242ZM104.404 9.68359C105.029 9.68359 105.576 9.8724 106.045 10.25C106.526 10.6146 106.767 11.1615 106.767 11.8906C106.767 12.6198 106.364 13.7656 105.556 15.3281C104.749 16.8776 103.779 18.4661 102.646 20.0938C101.513 21.7083 100.231 23.4271 98.7984 25.25C96.5328 28.1406 94.3583 30.7383 92.275 33.043C92.262 33.1992 92.2034 33.4922 92.0992 33.9219C92.0081 34.3385 91.9625 34.7617 91.9625 35.1914C91.9625 35.6211 92.1578 36.0117 92.5484 36.3633C92.9521 36.7018 93.4469 36.8711 94.0328 36.8711C94.6188 36.8711 95.2438 36.6628 95.9078 36.2461C96.5849 35.8294 97.1708 35.3672 97.6656 34.8594C98.9677 33.5182 99.775 32.8477 100.088 32.8477C100.4 32.8477 100.556 33.3229 100.556 34.2734V34.6641C100.556 35.1719 100.465 35.543 100.283 35.7773C99.1891 37.1185 97.9586 38.1211 96.5914 38.7852C95.2242 39.4362 93.9286 39.7617 92.7047 39.7617C91.4807 39.7617 90.5497 39.3906 89.9117 38.6484C89.2737 37.8932 88.9547 36.8646 88.9547 35.5625C88.9547 33.0234 89.6318 30.0417 90.9859 26.6172C92.3531 23.1797 93.8896 20.2565 95.5953 17.8477C99.4365 12.4049 102.373 9.68359 104.404 9.68359ZM103.525 12.9258C103.525 12.7305 103.46 12.6328 103.33 12.6328C102.874 12.6328 101.676 13.9349 99.7359 16.5391C97.7958 19.1432 96.3896 21.2201 95.5172 22.7695C94.6578 24.319 93.844 26.2656 93.0758 28.6094C94.6122 26.7865 96.7346 23.9479 99.443 20.0938C102.164 16.2266 103.525 13.8372 103.525 12.9258ZM111.162 24.3906C111.162 25.25 110.811 26.0052 110.108 26.6562C109.418 27.3073 108.63 27.6328 107.745 27.6328C107.458 27.6328 107.269 27.5677 107.178 27.4375C107.087 27.2943 107.041 27.112 107.041 26.8906C107.041 26.6693 107.067 26.4544 107.12 26.2461C106.651 26.4023 106.13 26.6432 105.557 26.9688C104.984 27.2943 104.281 27.776 103.448 28.4141C102.614 29.0521 102.198 29.5273 102.198 29.8398C102.198 29.944 102.347 29.9961 102.647 29.9961C102.959 29.9961 103.435 29.8919 104.073 29.6836C104.711 29.4622 105.153 29.3516 105.401 29.3516C105.661 29.3516 105.83 29.3646 105.909 29.3906C106.078 29.4818 106.26 29.6836 106.455 29.9961C106.651 30.2956 106.748 30.5365 106.748 30.7188C106.748 30.888 106.579 31.1159 106.241 31.4023C105.902 31.6888 105.518 31.9102 105.088 32.0664C104.659 32.2096 104.372 32.3203 104.229 32.3984C101.482 33.9349 100.108 34.9896 100.108 35.5625C100.108 36.5781 100.974 37.0859 102.705 37.0859C103.812 37.0859 104.926 36.7344 106.045 36.0312C106.996 35.4323 107.849 34.8268 108.604 34.2148C109.372 33.5898 109.854 33.2057 110.049 33.0625C110.258 32.9193 110.414 32.8477 110.518 32.8477C110.857 32.8477 111.026 33.2253 111.026 33.9805C111.026 34.7357 110.98 35.237 110.889 35.4844C110.798 35.7188 110.537 36.0117 110.108 36.3633C107.321 38.6289 104.685 39.7617 102.198 39.7617C100.87 39.7617 99.8083 39.5794 99.0141 39.2148C97.5557 38.5508 96.8266 37.5352 96.8266 36.168C96.8266 34.3711 98.0701 33.0104 100.557 32.0859C100.062 31.8646 99.7432 31.5846 99.6 31.2461C99.4568 30.8945 99.3852 30.3411 99.3852 29.5859C99.3852 28.8177 99.7367 28.0104 100.44 27.1641C101.156 26.3047 102.028 25.6016 103.057 25.0547C105.349 23.8177 107.393 23.1992 109.19 23.1992C109.62 23.1992 110.056 23.3034 110.498 23.5117C110.941 23.7201 111.162 24.013 111.162 24.3906ZM116.007 28.3555C119.08 24.8659 121.697 23.1211 123.859 23.1211C124.392 23.1211 124.829 23.2839 125.167 23.6094C125.519 23.9219 125.695 24.332 125.695 24.8398C125.695 25.3477 125.33 26.2005 124.601 27.3984C123.885 28.5833 123.221 29.5859 122.609 30.4062C122.283 30.8229 121.912 31.0312 121.495 31.0312C121.092 31.0312 120.773 30.8815 120.538 30.582C120.317 30.2826 120.206 29.931 120.206 29.5273C120.206 28.6289 120.688 27.6133 121.652 26.4805L121.612 26.4414C121.183 26.4805 120.115 27.3268 118.409 28.9805C116.717 30.6341 115.271 32.1185 114.073 33.4336C112.889 34.7357 111.599 36.3242 110.206 38.1992C109.803 38.7591 109.458 39.0391 109.171 39.0391C108.898 39.0391 108.533 38.9544 108.077 38.7852C107.609 38.6029 107.329 38.4727 107.237 38.3945C107.133 38.3164 107.081 38.1862 107.081 38.0039C107.081 37.8216 107.133 37.6133 107.237 37.3789C107.342 37.1315 107.537 36.7865 107.823 36.3438C108.097 35.901 108.514 35.1849 109.073 34.1953C109.646 33.2057 110.532 31.7083 111.73 29.7031C112.928 27.6979 113.644 26.487 113.878 26.0703C114.373 25.2109 114.777 24.5859 115.089 24.1953C115.675 23.4531 116.665 23.082 118.058 23.082C118.37 23.082 118.527 23.2773 118.527 23.668C118.527 24.2799 117.96 25.4323 116.827 27.125L116.007 28.3555ZM137.707 24.1562C138.697 24.1562 139.191 24.4948 139.191 25.1719C139.191 25.5365 139.107 25.8034 138.938 25.9727C138.768 26.1419 138.404 26.7083 137.844 27.6719C137.297 28.6224 136.685 29.8464 136.008 31.3438C135.344 32.8281 134.914 34.0977 134.719 35.1523C134.68 35.2826 134.66 35.4648 134.66 35.6992C134.66 36.4154 134.855 36.7734 135.246 36.7734C135.637 36.7734 136.099 36.5911 136.633 36.2266C137.167 35.849 137.642 35.4518 138.059 35.0352C138.475 34.6055 138.879 34.1693 139.27 33.7266C139.673 33.2839 139.914 33.0299 139.992 32.9648C140.07 32.8997 140.188 32.8672 140.344 32.8672C140.591 32.8672 140.741 33.056 140.793 33.4336C140.845 33.8112 140.871 34.2018 140.871 34.6055C140.871 35.0091 140.832 35.2891 140.754 35.4453C140.376 36.1875 139.543 37.0794 138.254 38.1211C136.978 39.1628 135.812 39.6836 134.758 39.6836C133.716 39.6836 132.948 39.3646 132.453 38.7266C131.958 38.0885 131.711 37.3854 131.711 36.6172C131.711 35.8359 131.841 35.1523 132.102 34.5664C131.021 35.9727 129.777 37.1641 128.371 38.1406C126.978 39.1172 125.839 39.6055 124.953 39.6055C124.068 39.6055 123.345 39.3385 122.785 38.8047C122.069 38.1406 121.711 37.2227 121.711 36.0508C121.711 34.8659 121.971 33.681 122.492 32.4961C123.026 31.2982 123.723 30.2109 124.582 29.2344C125.441 28.2448 126.385 27.3464 127.414 26.5391C129.576 24.8464 131.568 24 133.391 24C134.094 24 134.667 24.1172 135.109 24.3516C135.552 24.5859 135.832 24.8789 135.949 25.2305C136.262 24.7617 136.522 24.4688 136.73 24.3516C136.952 24.2214 137.277 24.1562 137.707 24.1562ZM135.109 26.3242C132.883 26.3242 130.578 27.5612 128.195 30.0352C127.349 30.9206 126.568 31.9818 125.852 33.2188C125.148 34.4557 124.797 35.3021 124.797 35.7578C124.797 36.2135 124.927 36.4414 125.188 36.4414C125.552 36.4414 126.568 35.7253 128.234 34.293C129.901 32.8477 131.008 31.7865 131.555 31.1094C132.154 30.3542 133.339 28.7591 135.109 26.3242Z" fill="#101828"/>
<path d="M23.2583 39C22.8181 39 22.4297 38.7122 22.3016 38.291L14.3927 12.291C14.1973 11.6486 14.678 11 15.3494 11L32 11C32.5523 11 33 11.4477 33 12L33 38C33 38.5523 32.5523 39 32 39L23.2583 39Z" fill="#FFCC00"/>
<path d="M9.7417 11C10.1819 11 10.5703 11.2878 10.6984 11.709L18.6073 37.709C18.8027 38.3514 18.322 39 17.6506 39L0.999999 39C0.447714 39 -7.03e-07 38.5523 -7.27141e-07 38L-1.86364e-06 12C-1.88778e-06 11.4477 0.447713 11 0.999998 11L9.7417 11Z" fill="#00C7B0"/>
</svg>
